<svg xmlns="http://www.w3.org/2000/svg" xmlns:xlink="http://www.w3.org/1999/xlink" width="331" height="406" viewBox="0 0 331 406">
  <defs>
    <clipPath id="clipPath">
      <rect id="Rectangle_17" data-name="Rectangle 17" width="331" height="406" rx="20" transform="translate(333 510)" fill="#fff"/>
    </clipPath>
    <clipPath id="clipPath-2">
      <rect id="Rectangle_859" data-name="Rectangle 859" width="278.343" height="498.344" fill="none"/>
    </clipPath>
  </defs>
  <g id="Mask_Group_1" data-name="Mask Group 1" transform="translate(-333 -510)" clipPath="url(#clipPath)">
    <g id="Group_288" data-name="Group 288" transform="translate(344.603 528.906)" opacity="0.48">
      <g id="Group_287" data-name="Group 287" clipPath="url(#clipPath-2)">
        <g id="Group_286" data-name="Group 286">
          <g id="Group_285" data-name="Group 285" clipPath="url(#clipPath-2)">
            <g id="Group_284" data-name="Group 284" opacity="0.3">
              <g id="Group_283" data-name="Group 283">
                <g id="Group_282" data-name="Group 282" clipPath="url(#clipPath-2)">
                  <path id="Path_692" data-name="Path 692" d="M213.043.025c-1.869,4.066-1.658,9.157-.88,13.494a69.913,69.913,0,0,0,3.645,12.707c3.093,8.29,6.941,16.593,9.659,27.767,5.545,22.455-5.85,41.186-9.861,49.115-1.84,3.607-4.842,9.33-7.592,14.071l-1.781,3.059c8.633-7.563,13.2-15.783,16.777-24.094,3.987-9.129,6.626-18.634,13.941-29.418,4.933-7.173,11.174-12.344,17.043-14.946a23.6,23.6,0,0,1,14.763-2.053,16.08,16.08,0,0,1,7.556,3.7,10.739,10.739,0,0,1,2.027,2.236c-8.175,1.774-12.744,7.435-15.271,13.385-2.63,6.092-3.763,12.744-6.94,20.869-3.13,8.141-9.152,14.043-15.366,18.047-6.229,4.038-12.55,6.087-16.089,7.527-3.194,1.283-8.406,3.157-12.844,4.511l-6.192,1.79q-2.624,19.911-6.573,39.618c6.5-5.615,10.737-11.425,14.744-17.41,5.032-7.441,9.853-15.37,18.812-22.3,12.244-9.126,23.066-8.681,28.995-6.269,6.138,2.487,8.455,6.382,8.455,6.382-7.023,1.771-11.469,6.136-14.942,11-3.512,4.929-6.121,10.382-10.231,16.066-4.075,5.677-9.905,8.436-15.909,10.158-5.949,1.711-11.929,2.243-15.31,2.9l-15.3,2.836q-.706,3.389-1.454,6.769a41.249,41.249,0,0,1-1.7,9.77,32.3,32.3,0,0,1-1.434,3.435c-.663,2.634-1.315,5.271-2.025,7.894-1.614,5.851-3.37,11.671-5.2,17.468a111.822,111.822,0,0,0,12.115-14.924c2.456-3.538,4.781-7.082,7.367-10.566a61.847,61.847,0,0,1,9.46-10.5,36.157,36.157,0,0,1,12.915-7.386,40.764,40.764,0,0,1,9.237-1.5l7.1-.485c1.835-.126,3-.091,3-.091-3.325,7.163-6.415,12.5-9.237,18.482l-4.378,8.749-2.214,4.22a34.007,34.007,0,0,1-2.52,4.306c-4.149,6.163-10.05,8.718-15.864,10.11-5.8,1.362-11.563,1.606-14.882,2.184-2.943.487-7.826,1.368-12.038,2.456-.629.16-1.234.322-1.823.485a382.082,382.082,0,0,1-17.294,43.55,218.433,218.433,0,0,0,25.7-20.311c8.186-7.318,16.08-14.631,26.931-20.714,1.829-1.026,3.6-1.931,5.388-2.761a51.127,51.127,0,0,1,13.805-4.006,51.884,51.884,0,0,1,11.916-.205c3.242.293,5.963.712,7.9,1.067a22.645,22.645,0,0,1,3.065.733c-6.928,6.973-12.907,11.771-18.425,17.418-2.776,2.765-5.424,5.5-7.881,8.323a101.13,101.13,0,0,1-9.3,9c-7.091,6.028-14.819,8.211-21.991,9.273-7.153,1.014-13.777.912-17.721,1.292-3.467.351-9.253.927-14.175,1.755-2.349.363-4.486.752-6.1,1.063q-5.394,11.223-11.661,22.01c-3.41,5.92-7.09,11.688-10.935,17.346,27.014-6.329,38.855-19.941,60.839-30.681,15.3-7.546,26.164-8.616,33.567-7.776,7.356.815,11.1,3.69,11.1,3.69-17.372,9.36-23.405,22.279-40.8,34.327-17.457,11.913-36.878,6.576-45.082,5.4-5.321-.79-15.449-2.552-20.625-3.461A256.861,256.861,0,0,1,116.573,334.4c11.65,1.222,21.78-1.587,31.276-4.75,11.109-3.615,22.105-8.647,37.509-9.45,18.759-1.034,30.236,3.829,36.427,8.489,6.259,4.7,7.7,9.257,7.7,9.257-10.13-1.053-18.187.826-26.1,3.429l-12.145,4.271c-4.261,1.51-8.9,2.79-13.086,4.219a54.345,54.345,0,0,1-26.846.99c-8.2-1.6-14.958-4.625-18.936-6.2a120.251,120.251,0,0,1-13.65-6.387c-1.416-.775-2.686-1.527-3.788-2.2a232.237,232.237,0,0,1-23.391,20.939q-5.342,4.105-10.926,7.9c7.783-.535,14.676-.526,21.141-.49,8.549.145,16.355.347,24,.827a226.139,226.139,0,0,1,22.785,2.385,192.192,192.192,0,0,1,23.343,4.739c11.337,3.171,20.4,7.729,26.868,12.752A41.668,41.668,0,0,1,211.2,399.754a22.238,22.238,0,0,1,2.373,10.133,11.038,11.038,0,0,1-.483,3.372c-8.254-9.12-18.195-11.992-27.716-13.343-9.715-1.346-19.617-1.068-32.5-2.642-13.474-1.749-22.836-6.546-31.279-10.955-8.3-4.469-15.224-9.007-19.8-11.163a118.447,118.447,0,0,0-17.14-6.8c-2.385-.727-4.679-1.295-6.614-1.721a194.5,194.5,0,0,1-28.318,15.608q-6.605,2.952-13.391,5.429c.334,0,.673-.009,1.006-.01a158.51,158.51,0,0,1,20.024,1.181,122.122,122.122,0,0,1,20.281,3.994,100.049,100.049,0,0,1,22.219,9.216,65.72,65.72,0,0,1,19.42,16.678,71.267,71.267,0,0,1,10.554,18.894c4.533,12.2,5.076,22.506,5.48,28.562a93.805,93.805,0,0,1-.849,20.854,48.457,48.457,0,0,1-3.1,11.305c.741-9.55-1.967-19.42-5.675-27.606a91.094,91.094,0,0,0-13.937-21.732c-10.849-12.8-22.911-20.968-39.491-30.077-22.018-11.873-35.238-17.517-44-21.919-3.583-1.682-6.415-3.128-8.538-4.224a134.546,134.546,0,0,1-17.046,3.126H2.656a2.431,2.431,0,1,1-.509-4.836l.214-.023a124.837,124.837,0,0,0,12.958-2.134l.85-1.3,1.141-2.669a31.173,31.173,0,0,0,1.906-5.515,55.773,55.773,0,0,0,1.368-5.689,120.122,120.122,0,0,0,1.882-22.494c.044-14.74-1.358-29.107-.337-46.7,1.319-23.451,6.974-37.54,12.188-45.266,5.348-7.771,9.946-9.391,9.946-9.391-4.039,26.04,4.175,41.433,5.737,68.951,1.8,27.712-12.878,48.47-18.959,56.812A85.187,85.187,0,0,1,21.2,387.515,177.26,177.26,0,0,0,47.913,378.1q2.8-1.218,5.559-2.536a30.781,30.781,0,0,0,7.518-12.983c2.343-7.48,2.737-15.3,2.255-23.021-.428-7.877-1.786-15.168-2.775-24.492-.8-8.234-1.8-16.678-2.446-26.333-1.974-25.687,1.882-42.679,6.617-51.758a31.8,31.8,0,0,1,6.487-9.066,12.841,12.841,0,0,1,2.893-2.183c-1.579,14.407.865,25.822,3.909,37.087,3.079,11.327,7.109,22.63,9.514,38.2a79.4,79.4,0,0,1,.908,11.444c.012,1.959,0,3.461-.073,5.005-.048,1.676-.133,3.308-.261,5.011a84.637,84.637,0,0,1-3.581,19.135,70.187,70.187,0,0,1-13.282,24.1c-.1.133-.235.28-.342.416a220.634,220.634,0,0,0,18.233-12.45c5.7-4.354,11.154-9.027,16.422-13.909,3.858-13.745,2.55-26.726.4-38.565-2.574-14.119-6.948-27.527-8.559-45.579-.927-10.358-1.364-20.192-.257-28.059,1.031-7.94,3.274-14.076,5.882-18.261,2.631-4.211,5.369-6.415,7.386-7.473a9.56,9.56,0,0,1,3.177-1.16,33.774,33.774,0,0,0-1.19,16.536,77.319,77.319,0,0,0,4.074,14.89c1.758,4.852,3.784,9.689,5.678,15.246.958,2.709,1.8,6.033,2.614,8.744.8,2.757,1.62,5.76,2.385,8.975a76.439,76.439,0,0,1,.068,35.39c-2.331,10.224-6.36,18.047-8.591,22.66-1.011,2.232-2.533,5.107-4.244,8.04a255.342,255.342,0,0,0,29.551-36.832c2.527-5.132,2.957-11.682,2-17.684a69.923,69.923,0,0,0-7.1-20.389c-1.6-3.21-3.407-6.366-5.257-9.649l-2.908-5.263-2.719-5.27a158.2,158.2,0,0,1-10.14-23.835c-3.945-12.157-4.881-23.264-3.815-32.045a41.435,41.435,0,0,1,7.03-19.288,32.783,32.783,0,0,1,4.41-4.679,21.7,21.7,0,0,1,3.75-2.32,10.52,10.52,0,0,1,3.25-1.075c-4.917,11.974-2.81,22.783.97,32.029,3.863,9.452,9.461,18.007,15.661,29.87a84.73,84.73,0,0,1,6.875,17.674,86.779,86.779,0,0,1,3.1,17.113,73.67,73.67,0,0,1-2.119,23.277,336.445,336.445,0,0,0,17.236-36.607c-.777-10.668-5.711-19.159-11.285-26.546-6.61-8.7-15.261-18.047-20.82-32.074a57.189,57.189,0,0,1-4.392-24.075,35.861,35.861,0,0,1,3.792-14.874,23.475,23.475,0,0,1,4.945-6.509,31.368,31.368,0,0,1-1.5-4.9c-1.4-6.165-.551-11.29.993-14.7A15.373,15.373,0,0,1,150.988,106a10.8,10.8,0,0,1,2.639-1.454c-.128,8.047,4.441,13.343,9.579,16.754,5.191,3.482,11.547,6.021,18.4,10.973,6.389,4.182,11.1,11.606,13.228,18.7a45.443,45.443,0,0,1,1.865,9.282q2.5-12.021,4.466-24.152c-2.566-8.86-8.382-14.776-14.547-19.832-6.817-5.714-14.91-10.872-21.684-21.382-4.4-6.989-6.324-13.828-6.363-19.34a24.764,24.764,0,0,1,2.772-12.705c3.476-6.022,7.623-7.669,7.623-7.669.594,7.688,4.229,13.139,8.574,17.386,4.453,4.3,9.68,7.32,15.178,11.966,5.512,4.589,8.523,11.159,10.113,17.865a58.92,58.92,0,0,1,1.441,12.328c.239-1.854.488-3.708.712-5.559a114.448,114.448,0,0,0-2.09-24.583c-2.208-12.145-5.509-23.622-6.943-38.172-1.951-19.306,1.7-32.427,6.8-39.686,2.529-3.592,5.192-5.549,7.255-6.206a6.806,6.806,0,0,1,3.049-.488M157.034,154.148c4.282,6.779,9.457,12.755,15.028,20.56a50.044,50.044,0,0,1,6.347,12.044,58.89,58.89,0,0,1,3.19,12.877,62.933,62.933,0,0,1,.054,15.316c.128-.121.272-.249.4-.369q3.8-11.261,7.033-22.7c.908-3.269,1.759-6.553,2.6-9.842a22.557,22.557,0,0,0-3.241-7.115,42.3,42.3,0,0,0-9.426-9.609c-3.573-2.773-7.4-5.227-11.448-8.149a75.085,75.085,0,0,1-6.369-5.074,76.546,76.546,0,0,1-6.041-6.049,52.243,52.243,0,0,1-4.191-5.335,49.522,49.522,0,0,0,6.063,13.449" transform="translate(0.004 -0.001)" fill="#d0d0d0"/>
                </g>
              </g>
            </g>
          </g>
        </g>
      </g>
    </g>
  </g>
</svg>
