<svg xmlns="http://www.w3.org/2000/svg" xmlns:xlink="http://www.w3.org/1999/xlink" width="175" height="219" viewBox="0 0 175 219">
  <defs>
    <clipPath id="clipPath">
      <rect id="Rectangle_17" data-name="Rectangle 17" width="175" height="219" rx="20" transform="translate(333.141 509.823)" fill="#fff"/>
    </clipPath>
    <clipPath id="clipPath-2">
      <rect id="Rectangle_859" data-name="Rectangle 859" width="154.269" height="268.799" fill="none"/>
    </clipPath>
  </defs>
  <g id="Mask_Group_1" data-name="Mask Group 1" transform="translate(-333.141 -509.823)" clipPath="url(#clipPath)">
    <g id="Group_288" data-name="Group 288" transform="translate(350.506 520.03)" opacity="0.48">
      <g id="Group_287" data-name="Group 287" clipPath="url(#clipPath-2)">
        <g id="Group_286" data-name="Group 286">
          <g id="Group_285" data-name="Group 285" clipPath="url(#clipPath-2)">
            <g id="Group_284" data-name="Group 284" opacity="0.3">
              <g id="Group_283" data-name="Group 283">
                <g id="Group_282" data-name="Group 282" clipPath="url(#clipPath-2)">
                  <path id="Path_692" data-name="Path 692" d="M118.064.016a12.313,12.313,0,0,0-.488,7.278,36.937,36.937,0,0,0,2.02,6.854c1.714,4.471,3.847,8.95,5.353,14.977,3.073,12.112-3.242,22.215-5.465,26.492-1.02,1.945-2.684,5.032-4.208,7.59l-.987,1.65a34.209,34.209,0,0,0,9.3-13c2.21-4.924,3.672-10.051,7.727-15.868a23.535,23.535,0,0,1,9.446-8.062,13.4,13.4,0,0,1,8.182-1.107,9.012,9.012,0,0,1,4.188,2,5.852,5.852,0,0,1,1.123,1.206,11.681,11.681,0,0,0-8.464,7.219c-1.458,3.286-2.086,6.874-3.846,11.257a20.731,20.731,0,0,1-8.517,9.734,47.7,47.7,0,0,1-8.917,4.06c-1.77.692-4.659,1.7-7.119,2.433l-3.432.966q-1.454,10.74-3.643,21.369a44.147,44.147,0,0,0,8.172-9.391c2.789-4.014,5.461-8.29,10.427-12.028,6.786-4.922,12.784-4.683,16.07-3.382a9.836,9.836,0,0,1,4.686,3.442,14.271,14.271,0,0,0-8.282,5.933c-1.946,2.659-3.392,5.6-5.67,8.666-2.258,3.062-5.49,4.55-8.817,5.479a80.559,80.559,0,0,1-8.485,1.563l-8.483,1.53q-.392,1.828-.806,3.651a21.71,21.71,0,0,1-.945,5.27,17.165,17.165,0,0,1-.795,1.853c-.367,1.421-.729,2.843-1.122,4.258-.895,3.156-1.868,6.295-2.883,9.422a60.663,60.663,0,0,0,6.715-8.05c1.361-1.909,2.65-3.82,4.083-5.7a33.692,33.692,0,0,1,5.243-5.665,20.2,20.2,0,0,1,7.158-3.984,23.164,23.164,0,0,1,5.12-.81l3.935-.262c1.017-.068,1.665-.049,1.665-.049-1.843,3.864-3.555,6.744-5.12,9.969l-2.427,4.719-1.227,2.276a18.234,18.234,0,0,1-1.4,2.323c-2.3,3.324-5.57,4.7-8.793,5.453-3.212.734-6.409.866-8.248,1.178-1.631.262-4.337.738-6.672,1.325-.349.086-.684.174-1.011.262a202.864,202.864,0,0,1-9.585,23.49,120.622,120.622,0,0,0,14.246-10.955c4.537-3.947,8.912-7.892,14.926-11.173,1.014-.554,2-1.042,2.986-1.489a28.931,28.931,0,0,1,7.651-2.161,29.543,29.543,0,0,1,6.6-.111c1.8.158,3.3.384,4.378.575a12.838,12.838,0,0,1,1.7.4c-3.84,3.761-7.154,6.349-10.212,9.4-1.539,1.491-3.006,2.968-4.368,4.489a55.4,55.4,0,0,1-5.156,4.854,23.589,23.589,0,0,1-12.188,5c-3.964.547-7.636.492-9.822.7-1.922.189-5.128.5-7.856.947-1.3.2-2.486.406-3.381.573q-2.99,6.054-6.463,11.872c-1.89,3.193-3.929,6.3-6.061,9.356,14.972-3.414,21.535-10.756,33.72-16.549,8.483-4.07,14.5-4.647,18.6-4.194a13.306,13.306,0,0,1,6.154,1.99c-9.628,5.049-12.972,12.017-22.616,18.516-9.675,6.426-20.439,3.547-24.986,2.913-2.949-.426-8.563-1.377-11.431-1.867A139.372,139.372,0,0,1,64.6,180.375c6.457.659,12.071-.856,17.334-2.562,6.157-1.95,12.252-4.664,20.789-5.1,10.4-.558,16.758,2.065,20.189,4.579,3.469,2.537,4.266,4.993,4.266,4.993a33.9,33.9,0,0,0-14.468,1.849l-6.731,2.3c-2.362.814-4.93,1.5-7.253,2.276a30.922,30.922,0,0,1-14.879.534,56.813,56.813,0,0,1-10.5-3.343,67.506,67.506,0,0,1-7.565-3.445c-.785-.418-1.489-.823-2.1-1.189A127.62,127.62,0,0,1,50.72,192.567q-2.961,2.214-6.055,4.262c4.314-.288,8.134-.284,11.717-.264,4.738.078,9.065.187,13.3.446q6.344.331,12.628,1.286a109.1,109.1,0,0,1,12.938,2.556,44.031,44.031,0,0,1,14.892,6.878,22.63,22.63,0,0,1,6.9,7.892,11.732,11.732,0,0,1,1.315,5.465,5.806,5.806,0,0,1-.268,1.819c-4.574-4.919-10.084-6.468-15.361-7.2-5.385-.726-10.873-.576-18.014-1.425-7.468-.943-12.657-3.531-17.336-5.909-4.6-2.41-8.438-4.858-10.975-6.021a66.73,66.73,0,0,0-9.5-3.668c-1.322-.392-2.593-.7-3.666-.928a108.727,108.727,0,0,1-15.7,8.418q-3.661,1.592-7.422,2.928c.185,0,.373,0,.557-.006a90.241,90.241,0,0,1,11.1.637,69.342,69.342,0,0,1,11.24,2.154,56.309,56.309,0,0,1,12.315,4.971,36.172,36.172,0,0,1,10.764,9,38.164,38.164,0,0,1,5.85,10.191,49.946,49.946,0,0,1,3.037,15.406,49.256,49.256,0,0,1-.471,11.248,25.59,25.59,0,0,1-1.717,6.1c.411-5.151-1.09-10.475-3.145-14.89a49,49,0,0,0-7.725-11.722c-6.013-6.9-12.7-11.31-21.887-16.223-12.2-6.4-19.531-9.448-24.388-11.823-1.986-.907-3.555-1.687-4.732-2.279a76.418,76.418,0,0,1-9.448,1.686H1.458a1.339,1.339,0,0,1-1.481-1.167,1.321,1.321,0,0,1,1.2-1.442l.119-.012a70.947,70.947,0,0,0,7.182-1.151l.471-.7.632-1.44a16.511,16.511,0,0,0,1.056-2.975,29.413,29.413,0,0,0,.758-3.068,63.1,63.1,0,0,0,1.043-12.133c.025-7.951-.753-15.7-.187-25.189.731-12.649,3.865-20.248,6.755-24.416,2.964-4.192,5.513-5.065,5.513-5.065-2.238,14.045,2.314,22.348,3.18,37.191,1,14.947-7.138,26.144-10.508,30.644a46.253,46.253,0,0,1-5.451,6.4,100.059,100.059,0,0,0,14.8-5.08q1.554-.657,3.081-1.368a16.506,16.506,0,0,0,4.167-7,33.352,33.352,0,0,0,1.25-12.417c-.237-4.249-.99-8.181-1.538-13.211-.445-4.441-1-9-1.356-14.2-1.094-13.855,1.043-23.021,3.667-27.918a17.168,17.168,0,0,1,3.6-4.89,7.1,7.1,0,0,1,1.6-1.177c-.875,7.771.479,13.928,2.166,20,1.707,6.109,3.94,12.206,5.273,20.605a41.7,41.7,0,0,1,.5,6.173c.007,1.057,0,1.867-.04,2.7-.027.9-.073,1.784-.145,2.7a44.562,44.562,0,0,1-1.985,10.321,37.574,37.574,0,0,1-7.361,13c-.058.072-.13.151-.19.224q5.222-3.109,10.106-6.715c3.16-2.349,6.182-4.869,9.1-7.5,2.138-7.414,1.413-14.416.222-20.8-1.427-7.616-3.851-14.848-4.744-24.584-.514-5.587-.756-10.891-.142-15.134a24.406,24.406,0,0,1,3.26-9.849,11.1,11.1,0,0,1,4.094-4.031,5.392,5.392,0,0,1,1.761-.626,17.751,17.751,0,0,0-.659,8.919,40.828,40.828,0,0,0,2.258,8.031c.974,2.617,2.1,5.226,3.147,8.224.531,1.461,1,3.254,1.449,4.716.443,1.487.9,3.107,1.322,4.841a40.155,40.155,0,0,1,.037,19.089,53.525,53.525,0,0,1-4.762,12.223c-.56,1.2-1.4,2.755-2.352,4.337a138.459,138.459,0,0,0,16.379-19.866,15.962,15.962,0,0,0,1.11-9.539,37.047,37.047,0,0,0-3.935-11c-.888-1.731-1.888-3.434-2.913-5.2l-1.612-2.839-1.507-2.843a84.115,84.115,0,0,1-5.62-12.856A40.005,40.005,0,0,1,63.12,97.191a21.979,21.979,0,0,1,3.9-10.4,17.892,17.892,0,0,1,2.444-2.524,12.09,12.09,0,0,1,2.078-1.251,5.943,5.943,0,0,1,1.8-.58c-2.725,6.459-1.557,12.289.538,17.276,2.141,5.1,5.244,9.713,8.68,16.112a44.973,44.973,0,0,1,3.81,9.533,45.679,45.679,0,0,1,1.719,9.23,38.711,38.711,0,0,1-1.175,12.555,179.305,179.305,0,0,0,9.553-19.745c-.43-5.754-3.165-10.334-6.254-14.318-3.663-4.695-8.458-9.734-11.54-17.3a30.113,30.113,0,0,1-2.434-12.986,18.931,18.931,0,0,1,2.1-8.023,12.7,12.7,0,0,1,2.741-3.511,16.585,16.585,0,0,1-.832-2.643,12.308,12.308,0,0,1,.55-7.927,8.335,8.335,0,0,1,2.872-3.509,6.033,6.033,0,0,1,1.462-.784c-.071,4.341,2.461,7.2,5.309,9.037,2.877,1.878,6.4,3.248,10.2,5.919a18.833,18.833,0,0,1,7.332,10.086A23.935,23.935,0,0,1,109,86.441q1.384-6.484,2.475-13.027c-1.422-4.779-4.646-7.97-8.062-10.7-3.778-3.082-8.264-5.864-12.018-11.533a20.041,20.041,0,0,1-3.527-10.432A13.06,13.06,0,0,1,89.409,33.9a9.69,9.69,0,0,1,4.225-4.137,14.15,14.15,0,0,0,4.752,9.378c2.468,2.322,5.365,3.948,8.412,6.455A17.346,17.346,0,0,1,112.4,55.23a30.967,30.967,0,0,1,.8,6.65c.132-1,.271-2,.394-3a60.122,60.122,0,0,0-1.159-13.26c-1.223-6.551-3.053-12.741-3.848-20.589-1.081-10.413.94-17.491,3.771-21.406A8.623,8.623,0,0,1,116.381.279a3.866,3.866,0,0,1,1.69-.263M87.021,83.148c2.374,3.657,5.241,6.88,8.329,11.09a26.753,26.753,0,0,1,3.518,6.5,31.068,31.068,0,0,1,1.768,6.945,33.042,33.042,0,0,1,.03,8.261c.071-.065.151-.134.221-.2q2.107-6.074,3.9-12.244c.5-1.763.975-3.535,1.439-5.309a12.015,12.015,0,0,0-1.8-3.838A23.124,23.124,0,0,0,99.2,89.168c-1.98-1.5-4.1-2.819-6.345-4.4a41.448,41.448,0,0,1-3.53-2.737,41.872,41.872,0,0,1-3.348-3.263A28.306,28.306,0,0,1,83.657,75.9a26.37,26.37,0,0,0,3.36,7.254" transform="translate(0.016 -0.004)" fill="#d0d0d0"/>
                </g>
              </g>
            </g>
          </g>
        </g>
      </g>
    </g>
  </g>
</svg>
