<svg xmlns="http://www.w3.org/2000/svg" width="23" height="20.112" viewBox="0 0 23 20.112">
  <g id="Group_353" data-name="Group 353" transform="translate(0 0.457)">
    <g id="_01_align_center" data-name="01 align center" transform="translate(0 0)">
      <path id="Path_590" data-name="Path 590" d="M9.827,0a9.827,9.827,0,1,0,9.827,9.827A9.827,9.827,0,0,0,9.827,0Zm7.081,5.733H14.271a16.113,16.113,0,0,0-2.31-3.8,8.215,8.215,0,0,1,4.948,3.8Zm-3.4,4.095a8.362,8.362,0,0,1-.39,2.457H6.532a8.362,8.362,0,0,1-.39-2.457,8.362,8.362,0,0,1,.39-2.457h6.591a8.362,8.362,0,0,1,.39,2.457ZM7.189,13.922h5.277a16.063,16.063,0,0,1-2.639,3.757,16.027,16.027,0,0,1-2.639-3.757Zm0-8.189A16.063,16.063,0,0,1,9.827,1.975a16.027,16.027,0,0,1,2.639,3.757Zm.509-3.8a16.113,16.113,0,0,0-2.314,3.8H2.746A8.215,8.215,0,0,1,7.7,1.929ZM2.015,7.37H4.832A9.84,9.84,0,0,0,4.5,9.827a9.84,9.84,0,0,0,.328,2.457H2.015a8.183,8.183,0,0,1,0-4.914Zm.731,6.552H5.384a16.113,16.113,0,0,0,2.314,3.8,8.215,8.215,0,0,1-4.952-3.8Zm9.215,3.8a16.113,16.113,0,0,0,2.31-3.8h2.638a8.215,8.215,0,0,1-4.948,3.8Zm5.679-5.441H14.823a9.84,9.84,0,0,0,.328-2.457,9.84,9.84,0,0,0-.328-2.457h2.815a8.183,8.183,0,0,1,0,4.914Z" transform="translate(0 0)" fill="#707070"/>
    </g>
    <g id="Group_351" data-name="Group 351" transform="translate(9.827 0)">
      <circle id="Ellipse_95" data-name="Ellipse 95" cx="6.5" cy="6.5" r="6.5" transform="translate(0.173 -0.457)" fill="#707070"/>
      <g id="_01_align_center-2" data-name="01 align center" transform="translate(1.788 1.158)">
        <path id="Path_589" data-name="Path 589" d="M4.885,0A4.885,4.885,0,1,0,9.77,4.885,4.885,4.885,0,0,0,4.885,0Zm0,.814a4.05,4.05,0,0,1,2.574.921L1.735,7.459A4.067,4.067,0,0,1,4.885.814Zm0,8.141a4.05,4.05,0,0,1-2.574-.921L8.035,2.311a4.067,4.067,0,0,1-3.15,6.645Z" transform="translate(0 0)" fill="#fff"/>
      </g>
    </g>
  </g>
</svg>
