<svg xmlns="http://www.w3.org/2000/svg" width="25.426" height="19.069" viewBox="0 0 25.426 19.069">
  <g id="Group_355" data-name="Group 355" transform="translate(0)">
    <g id="credit-card_1_" data-name="credit-card(1)" transform="translate(0 3.042)">
      <circle id="Ellipse_96" data-name="Ellipse 96" cx="1.228" cy="1.228" r="1.228" transform="translate(3.685 9.885)" fill="#707070"/>
      <path id="Path_591" data-name="Path 591" d="M16.917,3H4.452A4.457,4.457,0,0,0,0,7.452v7.123a4.457,4.457,0,0,0,4.452,4.452H16.917a4.457,4.457,0,0,0,4.452-4.452V7.452A4.457,4.457,0,0,0,16.917,3ZM4.452,4.781H16.917a2.671,2.671,0,0,1,2.671,2.671H1.781A2.671,2.671,0,0,1,4.452,4.781ZM16.917,17.246H4.452a2.671,2.671,0,0,1-2.671-2.671V9.233H19.589v5.342A2.671,2.671,0,0,1,16.917,17.246Z" transform="translate(0 -3)" fill="#707070"/>
    </g>
    <g id="Group_352" data-name="Group 352" transform="translate(11.913 0)">
      <ellipse id="Ellipse_95" data-name="Ellipse 95" cx="6.756" cy="6.756" rx="6.756" ry="6.756" transform="translate(0 0)" fill="#707070"/>
      <g id="_01_align_center" data-name="01 align center" transform="translate(1.927 1.927)">
        <path id="Path_589" data-name="Path 589" d="M4.885,0A4.885,4.885,0,1,0,9.77,4.885,4.885,4.885,0,0,0,4.885,0Zm0,.814a4.05,4.05,0,0,1,2.574.921L1.735,7.459A4.067,4.067,0,0,1,4.885.814Zm0,8.141a4.05,4.05,0,0,1-2.574-.921L8.035,2.311a4.067,4.067,0,0,1-3.15,6.645Z" transform="translate(0 0)" fill="#fff"/>
      </g>
    </g>
  </g>
</svg>
