<svg xmlns="http://www.w3.org/2000/svg" width="18.001" height="18.001" viewBox="0 0 18.001 18.001">
  <path id="Search" d="M17.877,1.181,13.342-3.354a.417.417,0,0,0-.3-.123h-.362a7.28,7.28,0,0,0,1.944-4.961A7.311,7.311,0,0,0,7.313-15.75,7.311,7.311,0,0,0,0-8.437,7.311,7.311,0,0,0,7.313-1.125a7.294,7.294,0,0,0,4.961-1.941v.359a.432.432,0,0,0,.123.3l4.535,4.535a.422.422,0,0,0,.6,0l.348-.348A.422.422,0,0,0,17.877,1.181ZM7.313-2.25A6.183,6.183,0,0,1,1.125-8.437a6.183,6.183,0,0,1,6.188-6.187A6.183,6.183,0,0,1,13.5-8.437,6.183,6.183,0,0,1,7.313-2.25Z" transform="translate(0 15.75)"/>
</svg>
